<svg role="img" viewBox="0 0 24 24" xmlns="http://www.w3.org/2000/svg"><title>Amazon</title><path d="M14.2 12.6c-1.3.9-3.1 1.4-4.7 1.4-2.2 0-4.2-.8-5.7-2.2-.1-.1 0-.3.1-.2 1.7 1 3.6 1.5 5.6 1.5 1.4 0 2.9-.3 4.3-.9.2-.1.4.1.4.4zm1.3.9c-.2-.2-.9-.1-1.3 0-.3.1-.6.2-.6.1 0-.2.4-1.1.7-1.4.2-.2.3-.2.5-.1 1.3.8 1.5 2.6 1.1 3.4-.3.6-1.1.9-1.9.9-.1 0-.2 0-.2-.1 0 0 .1-.1.3-.2.7-.3 1.1-.7 1.1-1.3 0-.3-.1-.6-.3-.8-.1-.1-.2-.2-.4-.3.1 0 .7.1.9.3.1.1.2.2.2.3 0 .4-.3.8-1.1 1.1zM15.7 8.2c0 .4.1.8.3 1.1l.1.1c.1.1.1.2 0 .2-.1.1-.2.1-.3 0l-.1-.1c-.3-.3-.4-.7-.4-1.2 0-.5.1-.9.4-1.2l.1-.1c.1-.1.2-.1.3 0 .1.1.1.2 0 .2l-.1.1c-.2.3-.3.6-.3.9zm2.8 1.5c0 .9-.3 1.6-.8 2.1-.1.1-.2.1-.3 0l-.1-.1c0-.1 0-.2.1-.2.4-.4.6-1 .6-1.7s-.2-1.3-.6-1.7c-.1-.1-.1-.2-.1-.2.1-.1.2-.1.3 0 .5.5.8 1.2.8 2.1v-.3zm1.6-3.5v6.6h-1.1c-.1 0-.2-.1-.2-.2v-.4c-.4.5-1 .8-1.7.8-1.5 0-2.7-1.3-2.7-3.1 0-1.8 1.2-3.1 2.7-3.1.7 0 1.3.3 1.7.8V6.2c0-.1.1-.2.2-.2h1.1c.1 0 .2.1.2.2zM8.5 7.2c1.7 0 2.9 1.2 2.9 3 0 1.9-1.3 3.2-3.1 3.2-.6 0-1.2-.2-1.6-.5v2.5c0 .1-.1.2-.2.2H5.4c-.1 0-.2-.1-.2-.2V7.4c0-.1.1-.2.2-.2h1.1c.1 0 .2.1.2.2v.4c.4-.4 1-.6 1.6-.6zm-.2 1.2c-.9 0-1.6.8-1.6 1.9s.7 1.9 1.6 1.9 1.6-.8 1.6-1.9-.7-1.9-1.6-1.9zm9.6 1.9c0-1.1-.7-1.9-1.6-1.9s-1.6.8-1.6 1.9.7 1.9 1.6 1.9 1.6-.8 1.6-1.9z"/></svg>
